<?xml version="1.0" encoding="utf-8"?>
<!-- Generator: Adobe Illustrator 25.2.1, SVG Export Plug-In . SVG Version: 6.00 Build 0)  -->
<svg version="1.1" id="Layer_1" xmlns="http://www.w3.org/2000/svg" xmlns:xlink="http://www.w3.org/1999/xlink" x="0px" y="0px"
	 viewBox="0 0 1000 1000" style="enable-background:new 0 0 1000 1000;" xml:space="preserve">
<style type="text/css">
	.st0{fill:#850CEF;}
</style>
<path class="st0" d="M235.48,659.16c-23.19,23.25-23.19,60.89,0,84.14l38.74,38.83c23.28,23.2,60.94,23.2,84.23,0l178.83-178.83
	c23.2-23.28,23.2-60.94,0-84.23l-17.3-17.3c-14.9-14.82-14.97-38.91-0.15-53.81c0.05-0.05,0.1-0.1,0.15-0.15l34.59-34.59
	c14.82-14.9,38.91-14.97,53.81-0.15c0.05,0.05,0.1,0.1,0.15,0.15l16.6,16.52c34.75,34.53,54.53,81.34,55.09,130.32
	c0.42,49.57-19.23,97.2-54.48,132.05L447.01,870.59c-72.06,72.14-188.96,72.21-261.1,0.14c-0.05-0.05-0.1-0.1-0.14-0.14l-37.79-37.7
	c-34.75-34.56-54.54-81.4-55.09-130.41c-0.34-49.29,19.13-96.65,54.05-131.44L197,521.05c14.82-14.9,38.91-14.97,53.81-0.15
	c0.05,0.05,0.1,0.1,0.15,0.15l34.59,34.59c14.92,14.86,14.98,39.01,0.12,53.93c-0.04,0.04-0.08,0.08-0.12,0.12L235.48,659.16z
	 M711.8,419.7c-14.92,14.86-14.98,39.01-0.12,53.93c0.04,0.04,0.08,0.08,0.12,0.12l34.59,34.59c14.92,14.86,39.05,14.86,53.96,0
	l52.75-52.66c72.05-72.18,72.05-189.07,0-261.25l-35.37-35.28c-72.06-72.14-188.96-72.21-261.1-0.14c-0.05,0.05-0.1,0.1-0.14,0.14
	L375.84,339.54c-72.14,72.06-72.21,188.96-0.14,261.1c0.05,0.05,0.1,0.1,0.14,0.14l17.9,17.99c14.92,14.86,39.05,14.86,53.96,0
	l34.59-34.59c14.87-14.95,14.87-39.1,0-54.05l-17.99-17.9c-23.2-23.28-23.2-60.94,0-84.23l180.56-180.48
	c23.28-23.2,60.94-23.2,84.23,0l35.28,35.28c23.2,23.28,23.2,60.94,0,84.23L711.8,419.7z"/>
<polygon class="st0" points="241.65,274.26 275.32,180.01 181.07,213.67 104.77,155.33 107.01,249.58 30.71,301.19 64.37,312.41 
	122.72,332.61 142.92,390.95 154.14,424.62 205.75,348.32 300,352.81 "/>
<polygon class="st0" points="433.81,142.46 478.97,116.31 433.81,90.16 407.66,45 381.51,90.16 336.35,116.31 381.51,142.46 
	407.66,187.62 "/>
<polygon class="st0" points="872.91,779.22 948.94,710.81 847.85,695.32 807.57,605.81 763.83,691.65 670.16,701.02 694.98,727.45 
	737.64,773.94 727.48,836.21 721.22,871.92 804.68,828.37 887.25,878.17 "/>
<polygon class="st0" points="582.8,896.42 614.68,877.97 582.8,859.52 564.35,827.64 545.9,859.52 514.03,877.97 545.9,896.42 
	564.35,928.29 "/>
</svg>
