<?xml version="1.0" encoding="UTF-8" standalone="no"?>
<!DOCTYPE svg PUBLIC "-//W3C//DTD SVG 1.1//EN" "http://www.w3.org/Graphics/SVG/1.1/DTD/svg11.dtd">
<svg width="100%" height="100%" viewBox="0 0 1000 1000" version="1.1" xmlns="http://www.w3.org/2000/svg" xmlns:xlink="http://www.w3.org/1999/xlink" xml:space="preserve" xmlns:serif="http://www.serif.com/" style="fill-rule:evenodd;clip-rule:evenodd;stroke-linejoin:round;stroke-miterlimit:2;">
    <path d="M235.48,659.16C212.29,682.41 212.29,720.05 235.48,743.3L274.22,782.13C297.5,805.33 335.16,805.33 358.45,782.13L537.28,603.3C560.48,580.02 560.48,542.36 537.28,519.07L519.98,501.77C505.08,486.95 505.01,462.86 519.83,447.96L554.57,413.22C569.39,398.32 593.48,398.25 608.38,413.07C608.43,413.12 608.48,413.17 608.53,413.22L625.13,429.74C659.88,464.27 679.66,511.08 680.22,560.06C680.64,609.63 660.99,657.26 625.74,692.11L447.01,870.59C374.95,942.73 258.05,942.8 185.91,870.73C185.86,870.68 185.81,870.63 185.77,870.59L147.98,832.89C113.23,798.33 93.44,751.49 92.89,702.48C92.55,653.19 112.02,605.83 146.94,571.04L197,521.05C211.82,506.15 235.91,506.08 250.81,520.9L285.55,555.64C300.47,570.5 300.53,594.65 285.67,609.57C285.63,609.61 285.59,609.65 285.55,609.69L235.48,659.16ZM711.8,419.7C696.88,434.56 696.82,458.71 711.68,473.63L746.39,508.34C761.31,523.2 785.44,523.2 800.35,508.34L853.1,455.68C925.15,383.5 925.15,266.61 853.1,194.43L817.73,159.15C745.67,87.01 628.77,86.94 556.63,159.01C556.58,159.06 556.53,159.11 556.49,159.15L375.84,339.54C303.7,411.6 303.63,528.5 375.7,600.64C375.75,600.69 375.8,600.74 375.84,600.78L393.74,618.77C408.66,633.63 432.79,633.63 447.7,618.77L482.29,584.18C497.16,569.23 497.16,545.08 482.29,530.13L464.3,512.23C441.1,488.95 441.1,451.29 464.3,428L644.86,247.52C668.14,224.32 705.8,224.32 729.09,247.52L764.37,282.8C787.57,306.08 787.57,343.74 764.37,367.03L711.8,419.7Z" style="fill-rule:nonzero;"/>
    <path d="M241.65,274.26L275.32,180.01L181.07,213.67L104.77,155.33L107.01,249.58L30.71,301.19L64.37,312.41L122.72,332.61L142.92,390.95L154.14,424.62L205.75,348.32L300,352.81L241.65,274.26Z" style="fill-rule:nonzero;"/>
    <path d="M433.81,142.46L478.97,116.31L433.81,90.16L407.66,45L381.51,90.16L336.35,116.31L381.51,142.46L407.66,187.62L433.81,142.46Z" style="fill-rule:nonzero;"/>
    <path d="M872.91,779.22L948.94,710.81L847.85,695.32L807.57,605.81L763.83,691.65L670.16,701.02L694.98,727.45L737.64,773.94L727.48,836.21L721.22,871.92L804.68,828.37L887.25,878.17L872.91,779.22Z" style="fill-rule:nonzero;"/>
    <path d="M582.8,896.42L614.68,877.97L582.8,859.52L564.35,827.64L545.9,859.52L514.03,877.97L545.9,896.42L564.35,928.29L582.8,896.42Z" style="fill-rule:nonzero;"/>
</svg>
